<?xml version="1.0" standalone="no"?>
<!DOCTYPE svg PUBLIC "-//W3C//DTD SVG 20010904//EN"
 "http://www.w3.org/TR/2001/REC-SVG-20010904/DTD/svg10.dtd">
<svg version="1.0" xmlns="http://www.w3.org/2000/svg"
 width="300.000000pt" height="300.000000pt" viewBox="0 0 300.000000 300.000000"
 preserveAspectRatio="xMidYMid meet">
<metadata>
Created by potrace 1.11, written by Peter Selinger 2001-2013
</metadata>
<g transform="translate(0.000000,300.000000) scale(0.100000,-0.100000)"
fill="#000000" stroke="none">
<path d="M0 1500 l0 -1500 1500 0 1500 0 0 1500 0 1500 -1500 0 -1500 0 0
-1500z m932 506 c97 -42 189 -49 235 -19 38 25 189 31 235 9 33 -16 39 -16 87
0 62 20 165 15 202 -10 23 -15 29 -14 79 5 45 17 68 20 125 14 39 -3 86 -5
105 -4 19 0 62 1 95 1 62 -1 94 -1 218 0 39 0 88 -1 107 -2 19 -1 92 1 161 4
151 6 183 0 187 -37 4 -29 -25 -175 -57 -297 -12 -41 -21 -89 -21 -105 0 -17
-16 -103 -35 -190 -48 -215 -32 -203 -255 -205 -96 -2 -241 -2 -322 -1 -135 2
-151 0 -190 -21 -62 -32 -193 -33 -235 -1 -28 20 -43 21 -325 27 l-296 6 -74
-35 c-337 -160 -727 66 -728 421 0 192 103 350 283 435 86 40 135 49 244 44
78 -3 104 -9 175 -39z"/>
<path d="M595 1992 c-96 -34 -148 -66 -208 -128 -78 -82 -118 -174 -124 -289
-6 -88 15 -183 44 -207 16 -12 16 -11 0 17 -29 53 -38 130 -26 204 35 204 195
348 408 367 132 12 268 -36 362 -127 28 -27 52 -49 54 -49 1 0 5 6 8 14 8 22
-45 89 -98 125 -93 62 -160 84 -270 87 -75 2 -113 -1 -150 -14z"/>
<path d="M1193 1948 c-2 -5 33 -8 78 -8 l82 0 -6 -112 c-3 -71 -2 -102 3 -84
7 22 14 153 11 201 -1 12 -160 14 -168 3z"/>
<path d="M1557 1950 c68 -8 89 -20 110 -65 l13 -30 -2 35 c-4 46 -49 71 -128
69 l-55 -2 62 -7z"/>
<path d="M1820 1953 c111 -11 139 -29 141 -90 l1 -38 9 40 c7 27 6 41 -1 43
-5 2 -10 10 -10 17 0 20 -56 35 -119 33 -36 -1 -43 -2 -21 -5z"/>
<path d="M2033 1948 c-10 -4 8 -7 41 -7 l59 -1 -7 -27 c-3 -16 -8 -39 -11 -53
-3 -15 1 -11 9 10 8 19 15 47 15 61 1 25 -2 26 -44 25 -24 0 -53 -4 -62 -8z"/>
<path d="M2265 1953 c106 -13 134 -30 136 -85 1 -31 2 -31 8 -8 18 62 -27 101
-116 99 -32 -1 -44 -4 -28 -6z"/>
<path d="M2462 1948 c-10 -4 6 -7 35 -7 50 -1 51 -1 61 -38 l11 -38 -2 44 -2
44 -43 1 c-24 1 -51 -2 -60 -6z"/>
<path d="M2613 1948 c-2 -5 17 -8 43 -8 l47 0 -7 -32 c-6 -33 -13 -67 -41
-193 -25 -111 -28 -130 -22 -125 9 8 87 353 82 359 -8 8 -96 7 -102 -1z"/>
<path d="M605 1926 c-201 -67 -317 -226 -303 -414 12 -150 95 -270 234 -339
62 -30 88 -37 155 -41 148 -9 270 37 358 134 60 65 89 125 104 207 14 86 8 99
-45 95 l-43 -3 -6 -61 c-10 -109 -72 -194 -182 -251 -46 -24 -64 -27 -147 -28
-84 0 -102 3 -151 28 -114 55 -182 161 -182 282 -1 96 28 159 103 229 47 43
71 57 124 71 81 22 181 17 248 -13 60 -26 130 -91 153 -142 10 -22 21 -40 25
-40 14 0 41 109 31 128 -20 38 -105 105 -169 135 -58 26 -81 31 -167 33 -66 3
-114 -1 -140 -10z"/>
<path d="M1490 1930 c-55 -13 -84 -55 -108 -156 -40 -163 -26 -199 76 -198 92
0 135 32 153 112 l7 33 -51 -3 c-49 -3 -50 -4 -61 -43 -7 -24 -18 -41 -29 -43
-22 -4 -22 3 5 123 23 106 31 125 55 125 16 0 15 -15 -3 -78 -6 -22 -5 -23 47
-20 l54 3 9 43 c12 58 -3 88 -51 101 -43 12 -54 12 -103 1z"/>
<path d="M1795 1931 c-37 -9 -68 -26 -83 -44 -15 -18 -62 -202 -62 -243 0 -47
30 -68 98 -69 72 0 110 19 139 70 36 63 32 75 -26 75 -49 0 -49 0 -63 -42 -8
-27 -20 -44 -32 -46 -16 -4 -18 0 -12 35 24 136 47 207 71 212 16 3 17 -3 11
-48 l-7 -51 49 0 c55 0 62 9 62 82 0 28 -6 41 -22 52 -30 19 -85 27 -123 17z"/>
<path d="M2232 1930 c-67 -16 -89 -53 -122 -201 -21 -91 -21 -93 -2 -118 37
-51 153 -49 201 3 23 25 71 188 71 244 0 24 -6 45 -17 54 -23 20 -88 29 -131
18z m48 -72 c0 -32 -49 -211 -60 -222 -21 -21 -23 9 -5 102 20 109 32 142 52
142 7 0 13 -10 13 -22z"/>
<path d="M1175 1918 c-28 -79 -68 -184 -88 -228 -13 -30 -27 -67 -31 -82 -6
-28 -6 -28 44 -28 48 0 52 2 61 30 8 21 17 30 33 30 19 0 22 -4 18 -30 -4 -30
-4 -30 46 -30 61 0 58 -8 68 198 l7 152 -77 0 c-52 0 -78 -4 -81 -12z m60
-150 c-8 -46 -16 -64 -28 -66 -9 -2 -17 0 -17 4 0 16 43 124 50 124 3 0 2 -28
-5 -62z"/>
<path d="M2005 1918 c-12 -37 -75 -312 -75 -330 0 -4 22 -8 49 -8 l49 0 37
158 c20 86 39 165 42 175 4 15 -3 17 -47 17 -31 0 -52 -5 -55 -12z"/>
<path d="M2445 1918 c-9 -30 -75 -322 -75 -333 0 -4 19 -5 42 -3 l42 3 15 68
c8 37 18 67 22 67 5 0 11 -31 15 -70 l7 -70 48 0 c27 0 49 3 49 8 0 4 16 77
35 162 19 85 35 161 35 168 0 7 -15 12 -40 12 -35 0 -40 -3 -46 -27 -17 -74
-32 -117 -37 -103 -3 8 -8 41 -12 73 l-6 57 -45 0 c-27 0 -46 -5 -49 -12z"/>
<path d="M1811 1834 c0 -11 3 -14 6 -6 3 7 2 16 -1 19 -3 4 -6 -2 -5 -13z"/>
<path d="M640 1826 c-25 -7 -56 -18 -68 -25 -45 -24 -104 -85 -130 -135 -22
-43 -26 -64 -26 -131 0 -67 4 -88 26 -130 100 -192 366 -229 519 -73 23 23 51
62 61 86 22 50 35 137 21 145 -6 4 -12 -17 -16 -51 -16 -178 -198 -297 -380
-249 -77 20 -127 56 -174 124 -37 54 -38 57 -38 147 0 81 3 96 27 138 29 47
77 91 138 124 49 27 210 27 259 1 75 -41 161 -143 161 -192 0 -8 5 -15 10 -15
18 0 10 34 -20 87 -72 125 -228 188 -370 149z"/>
<path d="M1512 1820 c0 -14 2 -19 5 -12 2 6 2 18 0 25 -3 6 -5 1 -5 -13z"/>
<path d="M2101 1814 c0 -11 3 -14 6 -6 3 7 2 16 -1 19 -3 4 -6 -2 -5 -13z"/>
<path d="M675 1803 c-37 -6 -55 -20 -49 -38 4 -10 23 -12 77 -9 95 6 166 -22
214 -84 97 -127 45 -293 -110 -351 -105 -40 -247 20 -296 124 -15 31 -27 45
-41 45 -24 0 -25 -9 -5 -58 20 -47 79 -108 130 -134 56 -29 167 -36 232 -14
106 35 184 141 184 249 0 167 -162 297 -336 270z"/>
<path d="M1796 1774 c-4 -20 -5 -38 -2 -41 2 -3 8 11 12 31 3 21 4 39 1 42 -2
3 -8 -11 -11 -32z"/>
<path d="M2391 1794 c0 -11 3 -14 6 -6 3 7 2 16 -1 19 -3 4 -6 -2 -5 -13z"/>
<path d="M2090 1785 c0 -3 -9 -46 -20 -96 -12 -51 -19 -93 -17 -96 2 -2 11 27
20 64 24 104 29 133 23 133 -3 0 -6 -2 -6 -5z"/>
<path d="M1496 1749 c-8 -42 0 -50 9 -9 4 17 5 34 2 36 -2 3 -7 -10 -11 -27z"/>
<path d="M1534 1739 c-3 -5 13 -9 35 -9 23 0 41 4 41 9 0 5 -16 9 -35 9 -19 0
-38 -4 -41 -9z"/>
<path d="M1626 1722 c9 -36 11 -37 16 -8 3 16 0 27 -9 30 -10 4 -12 -1 -7 -22z"/>
<path d="M1830 1740 c-11 -7 2 -10 42 -10 45 0 58 -4 62 -17 3 -11 4 -8 3 7
-2 21 -7 24 -47 27 -25 1 -52 -2 -60 -7z"/>
<path d="M665 1681 c-80 -36 -119 -114 -96 -191 12 -42 67 -96 107 -106 40
-10 114 2 143 23 103 77 94 214 -19 271 -53 27 -82 27 -135 3z m164 -113 c27
-39 23 -85 -11 -113 -29 -24 -86 -34 -102 -17 -4 4 -24 7 -44 7 -31 0 -38 4
-40 24 -2 15 3 28 12 33 9 5 16 20 16 33 0 14 10 35 21 46 19 19 29 21 76 16
42 -4 59 -11 72 -29z"/>
<path d="M1481 1674 c0 -11 3 -14 6 -6 3 7 2 16 -1 19 -3 4 -6 -2 -5 -13z"/>
<path d="M1921 1674 c0 -11 3 -14 6 -6 3 7 2 16 -1 19 -3 4 -6 -2 -5 -13z"/>
<path d="M1621 1664 c0 -11 3 -14 6 -6 3 7 2 16 -1 19 -3 4 -6 -2 -5 -13z"/>
<path d="M1177 1607 c-3 -9 -4 -30 -1 -45 3 -15 1 -51 -4 -80 -8 -43 -7 -50 4
-41 7 6 16 29 19 52 7 50 -7 141 -18 114z"/>
<path d="M2481 1604 c0 -11 3 -14 6 -6 3 7 2 16 -1 19 -3 4 -6 -2 -5 -13z"/>
<path d="M446 1584 c-4 -15 -5 -29 -1 -32 3 -3 5 2 5 11 0 10 8 17 20 17 24 0
27 15 4 24 -22 8 -21 9 -28 -20z"/>
<path d="M1350 1544 c0 -5 37 -10 83 -12 101 -3 113 -7 132 -40 13 -24 14 -25
15 -6 0 42 -34 58 -136 62 -52 3 -94 0 -94 -4z"/>
<path d="M1620 1540 c0 -6 10 -10 23 -9 65 6 70 2 63 -43 -4 -30 -3 -38 4 -27
5 9 11 32 12 50 l3 34 -52 3 c-34 2 -53 -1 -53 -8z"/>
<path d="M2004 1543 c4 -5 26 -8 49 -8 40 0 42 -1 40 -30 -2 -29 -2 -29 8 -6
16 40 5 51 -52 51 -29 0 -49 -3 -45 -7z"/>
<path d="M2520 1540 c0 -7 16 -9 39 -7 61 6 68 -2 52 -63 -7 -28 -11 -54 -8
-56 7 -7 36 118 30 129 -7 11 -113 8 -113 -3z"/>
<path d="M2144 1519 c-12 -5 -1 -8 34 -8 36 -1 52 -5 51 -13 -3 -20 12 -48 23
-42 5 4 5 10 0 17 -6 7 -11 21 -13 32 -3 14 -13 19 -40 20 -19 1 -44 -2 -55
-6z"/>
<path d="M1340 1517 c0 -2 -16 -68 -35 -146 -19 -77 -35 -148 -35 -157 0 -15
11 -16 93 -11 50 3 100 8 110 12 18 7 32 48 63 188 24 104 18 111 -106 115
-50 2 -90 2 -90 -1z m110 -67 c0 -43 -44 -190 -57 -190 -17 0 -17 -1 7 110 11
51 20 95 20 97 0 2 7 3 15 3 8 0 15 -9 15 -20z"/>
<path d="M1600 1500 c0 -17 7 -20 40 -20 29 0 42 5 50 20 10 19 8 20 -40 20
-43 0 -50 -3 -50 -20z"/>
<path d="M1980 1499 c0 -18 5 -20 47 -17 36 2 49 7 51 21 3 14 -4 17 -47 17
-45 0 -51 -3 -51 -21z"/>
<path d="M2501 1483 c-27 -113 -61 -261 -61 -271 0 -7 17 -12 43 -12 42 0 44
2 55 38 6 20 16 64 22 97 7 33 18 85 26 115 8 30 14 58 14 62 0 4 -20 8 -45 8
-43 0 -45 -1 -54 -37z"/>
<path d="M1805 1485 c17 -7 34 -10 39 -7 12 7 -21 21 -49 20 -15 0 -13 -3 10
-13z"/>
<path d="M2115 1480 c-3 -11 -10 -20 -15 -20 -12 0 -22 -33 -11 -39 6 -4 1
-41 -11 -94 -11 -48 -18 -94 -15 -101 6 -16 70 -30 97 -21 23 7 26 30 6 38
-19 8 21 177 42 177 11 0 13 8 8 31 -3 17 -6 35 -6 40 0 5 -20 9 -44 9 -36 0
-46 -4 -51 -20z"/>
<path d="M2355 1490 c3 -5 20 -10 36 -10 18 0 39 -9 54 -25 21 -20 25 -21 25
-6 0 10 -15 24 -35 34 -39 19 -90 23 -80 7z"/>
<path d="M1870 1484 c38 -8 90 -9 90 -2 0 4 -24 7 -52 7 -29 -1 -46 -3 -38 -5z"/>
<path d="M1731 1449 c-18 -19 -51 -136 -51 -180 0 -27 45 -43 82 -30 30 11 37
0 19 -28 -8 -12 -12 -12 -25 -2 -17 14 -88 11 -93 -4 -8 -29 17 -40 91 -40 62
0 79 4 96 20 19 19 80 213 80 254 0 23 -33 33 -67 20 -15 -6 -31 -5 -43 1 -30
16 -68 12 -89 -11z m99 -47 c0 -40 -31 -122 -46 -122 -17 0 -15 22 8 103 11
38 38 52 38 19z"/>
<path d="M2003 1462 c-24 -2 -33 -9 -37 -28 -11 -42 -46 -216 -46 -226 0 -5
19 -8 42 -6 l43 3 27 105 c39 153 38 159 -29 152z"/>
<path d="M2300 1459 c-36 -15 -70 -50 -70 -71 0 -16 6 -19 43 -16 35 2 43 7
45 26 5 33 34 29 30 -5 -2 -22 -12 -29 -57 -44 -29 -10 -59 -23 -66 -29 -20
-16 -29 -88 -15 -105 14 -17 53 -20 80 -5 13 7 21 7 25 0 3 -5 22 -10 41 -10
39 0 44 7 69 116 19 82 19 118 0 134 -20 17 -94 22 -125 9z m25 -171 c-9 -40
-13 -48 -26 -48 -12 0 -12 37 1 61 17 31 32 23 25 -13z"/>
<path d="M1562 1338 c-16 -68 -27 -127 -22 -131 4 -5 24 -7 45 -5 l38 3 28
115 c16 63 28 121 29 128 0 8 -15 12 -44 12 l-43 0 -31 -122z"/>
<path d="M1155 1400 c-4 -12 -5 -24 -2 -27 3 -2 8 5 12 17 4 12 5 24 2 27 -3
2 -8 -5 -12 -17z"/>
<path d="M2056 1353 c-8 -63 -1 -65 11 -3 6 27 7 50 3 50 -4 0 -10 -21 -14
-47z"/>
<path d="M2190 1343 c-7 -32 -15 -65 -18 -73 -3 -9 -1 -11 4 -7 11 11 43 137
34 137 -4 0 -13 -26 -20 -57z"/>
<path d="M2586 1364 c-4 -20 -5 -38 -2 -41 2 -3 8 11 12 31 3 21 4 39 1 42 -2
3 -8 -11 -11 -32z"/>
<path d="M1531 1324 c0 -11 3 -14 6 -6 3 7 2 16 -1 19 -3 4 -6 -2 -5 -13z"/>
<path d="M2565 1280 c-4 -17 -5 -34 -2 -36 3 -3 8 9 12 26 4 17 5 34 2 36 -3
3 -8 -9 -12 -26z"/>
<path d="M2421 1244 c0 -11 3 -14 6 -6 3 7 2 16 -1 19 -3 4 -6 -2 -5 -13z"/>
<path d="M1646 1233 c-6 -14 -5 -15 5 -6 7 7 10 15 7 18 -3 3 -9 -2 -12 -12z"/>
</g>
</svg>
